<svg id="visual" viewBox="0 0 900 600" width="900" height="600" xmlns="http://www.w3.org/2000/svg" xmlns:xlink="http://www.w3.org/1999/xlink" version="1.1"><path d="M0 133L50 130C100 127 200 121 300 110C400 99 500 83 600 83C700 83 800 99 850 107L900 115L900 0L850 0C800 0 700 0 600 0C500 0 400 0 300 0C200 0 100 0 50 0L0 0Z" fill="#001122"></path><path d="M0 199L50 198C100 197 200 195 300 182C400 169 500 145 600 143C700 141 800 161 850 171L900 181L900 113L850 105C800 97 700 81 600 81C500 81 400 97 300 108C200 119 100 125 50 128L0 131Z" fill="#003d8a"></path><path d="M0 427L50 417C100 407 200 387 300 365C400 343 500 319 600 314C700 309 800 323 850 330L900 337L900 179L850 169C800 159 700 139 600 141C500 143 400 167 300 180C200 193 100 195 50 196L0 197Z" fill="#715df2"></path><path d="M0 499L50 496C100 493 200 487 300 475C400 463 500 445 600 443C700 441 800 455 850 462L900 469L900 335L850 328C800 321 700 307 600 312C500 317 400 341 300 363C200 385 100 405 50 415L0 425Z" fill="#715df2"></path><path d="M0 565L50 561C100 557 200 549 300 541C400 533 500 525 600 530C700 535 800 553 850 562L900 571L900 467L850 460C800 453 700 439 600 441C500 443 400 461 300 473C200 485 100 491 50 494L0 497Z" fill="#003d8a"></path><path d="M0 601L50 601C100 601 200 601 300 601C400 601 500 601 600 601C700 601 800 601 850 601L900 601L900 569L850 560C800 551 700 533 600 528C500 523 400 531 300 539C200 547 100 555 50 559L0 563Z" fill="#001122"></path></svg>