<svg id="visual" viewBox="0 0 960 540" width="960" height="540" xmlns="http://www.w3.org/2000/svg" xmlns:xlink="http://www.w3.org/1999/xlink" version="1.1"><rect x="0" y="0" width="960" height="540" fill="#ffffff"></rect><defs><linearGradient id="grad1_0" x1="43.8%" y1="0%" x2="100%" y2="100%"><stop offset="14.444444444444446%" stop-color="#715df2" stop-opacity="1"></stop><stop offset="85.55555555555554%" stop-color="#715df2" stop-opacity="1"></stop></linearGradient></defs><defs><linearGradient id="grad1_1" x1="43.8%" y1="0%" x2="100%" y2="100%"><stop offset="14.444444444444446%" stop-color="#715df2" stop-opacity="1"></stop><stop offset="85.55555555555554%" stop-color="#8b73f5" stop-opacity="1"></stop></linearGradient></defs><defs><linearGradient id="grad1_2" x1="43.8%" y1="0%" x2="100%" y2="100%"><stop offset="14.444444444444446%" stop-color="#a28af7" stop-opacity="1"></stop><stop offset="85.55555555555554%" stop-color="#8b73f5" stop-opacity="1"></stop></linearGradient></defs><defs><linearGradient id="grad1_3" x1="43.8%" y1="0%" x2="100%" y2="100%"><stop offset="14.444444444444446%" stop-color="#a28af7" stop-opacity="1"></stop><stop offset="85.55555555555554%" stop-color="#b7a0f9" stop-opacity="1"></stop></linearGradient></defs><defs><linearGradient id="grad1_4" x1="43.8%" y1="0%" x2="100%" y2="100%"><stop offset="14.444444444444446%" stop-color="#cab7fb" stop-opacity="1"></stop><stop offset="85.55555555555554%" stop-color="#b7a0f9" stop-opacity="1"></stop></linearGradient></defs><defs><linearGradient id="grad1_5" x1="43.8%" y1="0%" x2="100%" y2="100%"><stop offset="14.444444444444446%" stop-color="#cab7fb" stop-opacity="1"></stop><stop offset="85.55555555555554%" stop-color="#dccffd" stop-opacity="1"></stop></linearGradient></defs><defs><linearGradient id="grad1_6" x1="43.8%" y1="0%" x2="100%" y2="100%"><stop offset="14.444444444444446%" stop-color="#eee7fe" stop-opacity="1"></stop><stop offset="85.55555555555554%" stop-color="#dccffd" stop-opacity="1"></stop></linearGradient></defs><defs><linearGradient id="grad1_7" x1="43.8%" y1="0%" x2="100%" y2="100%"><stop offset="14.444444444444446%" stop-color="#eee7fe" stop-opacity="1"></stop><stop offset="85.55555555555554%" stop-color="#ffffff" stop-opacity="1"></stop></linearGradient></defs><defs><linearGradient id="grad2_0" x1="0%" y1="0%" x2="56.3%" y2="100%"><stop offset="14.444444444444446%" stop-color="#715df2" stop-opacity="1"></stop><stop offset="85.55555555555554%" stop-color="#715df2" stop-opacity="1"></stop></linearGradient></defs><defs><linearGradient id="grad2_1" x1="0%" y1="0%" x2="56.3%" y2="100%"><stop offset="14.444444444444446%" stop-color="#8b73f5" stop-opacity="1"></stop><stop offset="85.55555555555554%" stop-color="#715df2" stop-opacity="1"></stop></linearGradient></defs><defs><linearGradient id="grad2_2" x1="0%" y1="0%" x2="56.3%" y2="100%"><stop offset="14.444444444444446%" stop-color="#8b73f5" stop-opacity="1"></stop><stop offset="85.55555555555554%" stop-color="#a28af7" stop-opacity="1"></stop></linearGradient></defs><defs><linearGradient id="grad2_3" x1="0%" y1="0%" x2="56.3%" y2="100%"><stop offset="14.444444444444446%" stop-color="#b7a0f9" stop-opacity="1"></stop><stop offset="85.55555555555554%" stop-color="#a28af7" stop-opacity="1"></stop></linearGradient></defs><defs><linearGradient id="grad2_4" x1="0%" y1="0%" x2="56.3%" y2="100%"><stop offset="14.444444444444446%" stop-color="#b7a0f9" stop-opacity="1"></stop><stop offset="85.55555555555554%" stop-color="#cab7fb" stop-opacity="1"></stop></linearGradient></defs><defs><linearGradient id="grad2_5" x1="0%" y1="0%" x2="56.3%" y2="100%"><stop offset="14.444444444444446%" stop-color="#dccffd" stop-opacity="1"></stop><stop offset="85.55555555555554%" stop-color="#cab7fb" stop-opacity="1"></stop></linearGradient></defs><defs><linearGradient id="grad2_6" x1="0%" y1="0%" x2="56.3%" y2="100%"><stop offset="14.444444444444446%" stop-color="#dccffd" stop-opacity="1"></stop><stop offset="85.55555555555554%" stop-color="#eee7fe" stop-opacity="1"></stop></linearGradient></defs><defs><linearGradient id="grad2_7" x1="0%" y1="0%" x2="56.3%" y2="100%"><stop offset="14.444444444444446%" stop-color="#ffffff" stop-opacity="1"></stop><stop offset="85.55555555555554%" stop-color="#eee7fe" stop-opacity="1"></stop></linearGradient></defs><g transform="translate(960, 0)"><path d="M0 486C-57.8 465.2 -115.5 444.3 -175.7 424.1C-235.8 403.8 -298.3 384.1 -343.7 343.7C-389 303.2 -417.1 242.1 -437.9 181.4C-458.8 120.7 -472.4 60.3 -486 0L0 0Z" fill="#f7f3ff"></path><path d="M0 425.3C-50.5 407 -101.1 388.8 -153.7 371.1C-206.3 353.3 -261 336.1 -300.7 300.7C-340.3 265.3 -364.9 211.9 -383.2 158.7C-401.4 105.6 -413.3 52.8 -425.2 0L0 0Z" fill="#e5dbfd"></path><path d="M0 364.5C-43.3 348.9 -86.6 333.3 -131.7 318C-176.8 302.8 -223.8 288.1 -257.7 257.7C-291.7 227.4 -312.8 181.6 -328.4 136C-344.1 90.5 -354.3 45.2 -364.5 0L0 0Z" fill="#d3c3fc"></path><path d="M0 303.8C-36.1 290.7 -72.2 277.7 -109.8 265C-147.4 252.4 -186.5 240 -214.8 214.8C-243.1 189.5 -260.7 151.3 -273.7 113.4C-286.7 75.4 -295.2 37.7 -303.7 0L0 0Z" fill="#c1acfa"></path><path d="M0 243C-28.9 232.6 -57.8 222.2 -87.8 212C-117.9 201.9 -149.2 192 -171.8 171.8C-194.5 151.6 -208.5 121.1 -219 90.7C-229.4 60.3 -236.2 30.2 -243 0L0 0Z" fill="#ad95f8"></path><path d="M0 182.3C-21.7 174.4 -43.3 166.6 -65.9 159C-88.4 151.4 -111.9 144 -128.9 128.9C-145.9 113.7 -156.4 90.8 -164.2 68C-172 45.2 -177.1 22.6 -182.2 0L0 0Z" fill="#977ef6"></path><path d="M0 121.5C-14.4 116.3 -28.9 111.1 -43.9 106C-58.9 100.9 -74.6 96 -85.9 85.9C-97.2 75.8 -104.3 60.5 -109.5 45.3C-114.7 30.2 -118.1 15.1 -121.5 0L0 0Z" fill="#7f68f3"></path><path d="M0 60.8C-7.2 58.1 -14.4 55.5 -22 53C-29.5 50.5 -37.3 48 -43 43C-48.6 37.9 -52.1 30.3 -54.7 22.7C-57.3 15.1 -59 7.5 -60.7 0L0 0Z" fill="#715df2"></path></g><g transform="translate(0, 540)"><path d="M0 -486C50.9 -449.2 101.7 -412.4 163.4 -394.5C225.1 -376.6 297.6 -377.6 343.7 -343.7C389.7 -309.7 409.4 -240.7 428.7 -177.6C448 -114.5 467 -57.2 486 0L0 0Z" fill="#f7f3ff"></path><path d="M0 -425.2C44.5 -393 89 -360.8 143 -345.2C197 -329.5 260.4 -330.4 300.7 -300.7C341 -271 358.2 -210.6 375.1 -155.4C392 -100.1 408.6 -50.1 425.3 0L0 0Z" fill="#e5dbfd"></path><path d="M0 -364.5C38.1 -336.9 76.3 -309.3 122.6 -295.9C168.8 -282.5 223.2 -283.2 257.7 -257.7C292.3 -232.3 307 -180.5 321.5 -133.2C336 -85.8 350.2 -42.9 364.5 0L0 0Z" fill="#d3c3fc"></path><path d="M0 -303.7C31.8 -280.7 63.6 -257.7 102.1 -246.6C140.7 -235.4 186 -236 214.8 -214.8C243.6 -193.5 255.9 -150.4 267.9 -111C280 -71.5 291.9 -35.8 303.8 0L0 0Z" fill="#c1acfa"></path><path d="M0 -243C25.4 -224.6 50.9 -206.2 81.7 -197.2C112.5 -188.3 148.8 -188.8 171.8 -171.8C194.9 -154.8 204.7 -120.3 214.3 -88.8C224 -57.2 233.5 -28.6 243 0L0 0Z" fill="#ad95f8"></path><path d="M0 -182.2C19.1 -168.4 38.1 -154.6 61.3 -147.9C84.4 -141.2 111.6 -141.6 128.9 -128.9C146.1 -116.1 153.5 -90.3 160.8 -66.6C168 -42.9 175.1 -21.5 182.3 0L0 0Z" fill="#977ef6"></path><path d="M0 -121.5C12.7 -112.3 25.4 -103.1 40.9 -98.6C56.3 -94.2 74.4 -94.4 85.9 -85.9C97.4 -77.4 102.3 -60.2 107.2 -44.4C112 -28.6 116.7 -14.3 121.5 0L0 0Z" fill="#7f68f3"></path><path d="M0 -60.7C6.4 -56.1 12.7 -51.5 20.4 -49.3C28.1 -47.1 37.2 -47.2 43 -43C48.7 -38.7 51.2 -30.1 53.6 -22.2C56 -14.3 58.4 -7.2 60.8 0L0 0Z" fill="#715df2"></path></g></svg>