<svg id="visual" viewBox="0 0 900 900" width="900" height="900" xmlns="http://www.w3.org/2000/svg" xmlns:xlink="http://www.w3.org/1999/xlink" version="1.1"><rect x="0" y="0" width="900" height="900" fill="#001220"></rect><defs><linearGradient id="grad1_0" x1="0%" y1="0%" x2="100%" y2="100%"><stop offset="30%" stop-color="#001220" stop-opacity="1"></stop><stop offset="70%" stop-color="#001220" stop-opacity="1"></stop></linearGradient></defs><defs><linearGradient id="grad2_0" x1="0%" y1="0%" x2="100%" y2="100%"><stop offset="30%" stop-color="#001220" stop-opacity="1"></stop><stop offset="70%" stop-color="#001220" stop-opacity="1"></stop></linearGradient></defs><g transform="translate(900, 0)"><path d="M0 572.8C-67 549 -133.9 525.2 -208.2 502.6C-282.5 479.9 -364 458.4 -405 405C-446 351.6 -446.3 266.4 -467.5 193.6C-488.7 120.8 -530.7 60.4 -572.8 0L0 0Z" fill="#362989"></path></g><g transform="translate(0, 900)"><path d="M0 -572.8C69 -554.8 138 -536.8 212.8 -513.7C287.5 -490.6 368 -462.3 405 -405C442 -347.7 435.7 -261.4 456.4 -189C477.1 -116.7 524.9 -58.4 572.8 0L0 0Z" fill="#362989"></path></g></svg>