<svg id="visual" viewBox="0 0 540 960" width="540" height="960" xmlns="http://www.w3.org/2000/svg" xmlns:xlink="http://www.w3.org/1999/xlink" version="1.1"><rect x="0" y="0" width="540" height="960" fill="#ffffff"></rect><defs><linearGradient id="grad1_0" x1="0%" y1="0%" x2="100%" y2="100%"><stop offset="30%" stop-color="#6600ff" stop-opacity="1"></stop><stop offset="70%" stop-color="#6600ff" stop-opacity="1"></stop></linearGradient></defs><defs><linearGradient id="grad1_1" x1="0%" y1="0%" x2="100%" y2="100%"><stop offset="30%" stop-color="#6600ff" stop-opacity="1"></stop><stop offset="70%" stop-color="#9c58ff" stop-opacity="1"></stop></linearGradient></defs><defs><linearGradient id="grad1_2" x1="0%" y1="0%" x2="100%" y2="100%"><stop offset="30%" stop-color="#c391ff" stop-opacity="1"></stop><stop offset="70%" stop-color="#9c58ff" stop-opacity="1"></stop></linearGradient></defs><defs><linearGradient id="grad1_3" x1="0%" y1="0%" x2="100%" y2="100%"><stop offset="30%" stop-color="#c391ff" stop-opacity="1"></stop><stop offset="70%" stop-color="#e4c8ff" stop-opacity="1"></stop></linearGradient></defs><defs><linearGradient id="grad1_4" x1="0%" y1="0%" x2="100%" y2="100%"><stop offset="30%" stop-color="#ffffff" stop-opacity="1"></stop><stop offset="70%" stop-color="#e4c8ff" stop-opacity="1"></stop></linearGradient></defs><defs><linearGradient id="grad2_0" x1="0%" y1="0%" x2="100%" y2="100%"><stop offset="30%" stop-color="#6600ff" stop-opacity="1"></stop><stop offset="70%" stop-color="#6600ff" stop-opacity="1"></stop></linearGradient></defs><defs><linearGradient id="grad2_1" x1="0%" y1="0%" x2="100%" y2="100%"><stop offset="30%" stop-color="#9c58ff" stop-opacity="1"></stop><stop offset="70%" stop-color="#6600ff" stop-opacity="1"></stop></linearGradient></defs><defs><linearGradient id="grad2_2" x1="0%" y1="0%" x2="100%" y2="100%"><stop offset="30%" stop-color="#9c58ff" stop-opacity="1"></stop><stop offset="70%" stop-color="#c391ff" stop-opacity="1"></stop></linearGradient></defs><defs><linearGradient id="grad2_3" x1="0%" y1="0%" x2="100%" y2="100%"><stop offset="30%" stop-color="#e4c8ff" stop-opacity="1"></stop><stop offset="70%" stop-color="#c391ff" stop-opacity="1"></stop></linearGradient></defs><defs><linearGradient id="grad2_4" x1="0%" y1="0%" x2="100%" y2="100%"><stop offset="30%" stop-color="#e4c8ff" stop-opacity="1"></stop><stop offset="70%" stop-color="#ffffff" stop-opacity="1"></stop></linearGradient></defs><g transform="translate(540, 0)"><path d="M0 486C-59.5 460 -119 434 -166.8 402.8C-214.7 371.6 -250.9 335.2 -301.2 301.2C-351.5 267.3 -415.9 235.8 -449 186C-482.1 136.2 -484.1 68.1 -486 0L0 0Z" fill="#f2e3ff"></path><path d="M0 388.8C-47.6 368 -95.2 347.2 -133.5 322.2C-171.8 297.3 -200.8 268.1 -241 241C-281.2 213.8 -332.7 188.6 -359.2 148.8C-385.7 109 -387.3 54.5 -388.8 0L0 0Z" fill="#d4acff"></path><path d="M0 291.6C-35.7 276 -71.4 260.4 -100.1 241.7C-128.8 223 -150.6 201.1 -180.7 180.7C-210.9 160.4 -249.5 141.5 -269.4 111.6C-289.3 81.7 -290.4 40.9 -291.6 0L0 0Z" fill="#b175ff"></path><path d="M0 194.4C-23.8 184 -47.6 173.6 -66.7 161.1C-85.9 148.6 -100.4 134.1 -120.5 120.5C-140.6 106.9 -166.3 94.3 -179.6 74.4C-192.9 54.5 -193.6 27.2 -194.4 0L0 0Z" fill="#8438ff"></path><path d="M0 97.2C-11.9 92 -23.8 86.8 -33.4 80.6C-42.9 74.3 -50.2 67 -60.2 60.2C-70.3 53.5 -83.2 47.2 -89.8 37.2C-96.4 27.2 -96.8 13.6 -97.2 0L0 0Z" fill="#6600ff"></path></g><g transform="translate(0, 960)"><path d="M0 -486C64.8 -481.1 129.7 -476.1 186 -449C242.3 -421.9 290.1 -372.6 321 -321C352 -269.5 366.1 -215.7 390.8 -161.9C415.5 -108 450.7 -54 486 0L0 0Z" fill="#f2e3ff"></path><path d="M0 -388.8C51.9 -384.9 103.7 -380.9 148.8 -359.2C193.8 -337.5 232.1 -298 256.8 -256.8C281.6 -215.6 292.9 -172.6 312.6 -129.5C332.4 -86.4 360.6 -43.2 388.8 0L0 0Z" fill="#d4acff"></path><path d="M0 -291.6C38.9 -288.6 77.8 -285.7 111.6 -269.4C145.4 -253.1 174 -223.5 192.6 -192.6C211.2 -161.7 219.7 -129.4 234.5 -97.1C249.3 -64.8 270.4 -32.4 291.6 0L0 0Z" fill="#b175ff"></path><path d="M0 -194.4C25.9 -192.4 51.9 -190.5 74.4 -179.6C96.9 -168.8 116 -149 128.4 -128.4C140.8 -107.8 146.4 -86.3 156.3 -64.8C166.2 -43.2 180.3 -21.6 194.4 0L0 0Z" fill="#8438ff"></path><path d="M0 -97.2C13 -96.2 25.9 -95.2 37.2 -89.8C48.5 -84.4 58 -74.5 64.2 -64.2C70.4 -53.9 73.2 -43.1 78.2 -32.4C83.1 -21.6 90.1 -10.8 97.2 0L0 0Z" fill="#6600ff"></path></g></svg>