<svg id="visual" viewBox="0 0 540 960" width="540" height="960" xmlns="http://www.w3.org/2000/svg" xmlns:xlink="http://www.w3.org/1999/xlink" version="1.1"><rect x="0" y="0" width="540" height="960" fill="#001122"></rect><defs><linearGradient id="grad1_0" x1="0%" y1="0%" x2="100%" y2="100%"><stop offset="30%" stop-color="#001122" stop-opacity="1"></stop><stop offset="70%" stop-color="#001122" stop-opacity="1"></stop></linearGradient></defs><defs><linearGradient id="grad2_0" x1="0%" y1="0%" x2="100%" y2="100%"><stop offset="30%" stop-color="#001122" stop-opacity="1"></stop><stop offset="70%" stop-color="#001122" stop-opacity="1"></stop></linearGradient></defs><g transform="translate(540, 0)"><path d="M0 486C-68.9 483.7 -137.9 481.3 -185.6 448.1C-233.3 414.9 -259.9 350.7 -305.5 305.5C-351.1 260.2 -415.7 233.8 -449 186C-482.3 138.2 -484.1 69.1 -486 0L0 0Z" fill="#715DF2"></path></g><g transform="translate(0, 960)"><path d="M0 -486C67.6 -483.8 135.1 -481.6 186 -449C236.8 -416.4 271 -353.5 301.9 -301.9C332.9 -250.4 360.7 -210.3 390.8 -161.9C420.9 -113.5 453.5 -56.7 486 0L0 0Z" fill="#715DF2"></path></g></svg>