<svg id="visual" viewBox="0 0 900 600" width="900" height="600" xmlns="http://www.w3.org/2000/svg" xmlns:xlink="http://www.w3.org/1999/xlink" version="1.1"><rect x="0" y="0" width="900" height="600" fill="#001220"></rect><path d="M0 422L21.5 424.7C43 427.3 86 432.7 128.8 424.8C171.7 417 214.3 396 257.2 381.7C300 367.3 343 359.7 385.8 367.3C428.7 375 471.3 398 514.2 398.8C557 399.7 600 378.3 642.8 369.5C685.7 360.7 728.3 364.3 771.2 367.7C814 371 857 374 878.5 375.5L900 377L900 601L878.5 601C857 601 814 601 771.2 601C728.3 601 685.7 601 642.8 601C600 601 557 601 514.2 601C471.3 601 428.7 601 385.8 601C343 601 300 601 257.2 601C214.3 601 171.7 601 128.8 601C86 601 43 601 21.5 601L0 601Z" fill="#ffffff"></path><path d="M0 429L21.5 427.3C43 425.7 86 422.3 128.8 421C171.7 419.7 214.3 420.3 257.2 425C300 429.7 343 438.3 385.8 437.8C428.7 437.3 471.3 427.7 514.2 426C557 424.3 600 430.7 642.8 436.7C685.7 442.7 728.3 448.3 771.2 452.3C814 456.3 857 458.7 878.5 459.8L900 461L900 601L878.5 601C857 601 814 601 771.2 601C728.3 601 685.7 601 642.8 601C600 601 557 601 514.2 601C471.3 601 428.7 601 385.8 601C343 601 300 601 257.2 601C214.3 601 171.7 601 128.8 601C86 601 43 601 21.5 601L0 601Z" fill="#b098f8"></path><path d="M0 445L21.5 454.3C43 463.7 86 482.3 128.8 484.5C171.7 486.7 214.3 472.3 257.2 471.2C300 470 343 482 385.8 486.8C428.7 491.7 471.3 489.3 514.2 484.5C557 479.7 600 472.3 642.8 466.7C685.7 461 728.3 457 771.2 455.3C814 453.7 857 454.3 878.5 454.7L900 455L900 601L878.5 601C857 601 814 601 771.2 601C728.3 601 685.7 601 642.8 601C600 601 557 601 514.2 601C471.3 601 428.7 601 385.8 601C343 601 300 601 257.2 601C214.3 601 171.7 601 128.8 601C86 601 43 601 21.5 601L0 601Z" fill="#715df2"></path><path d="M0 496L21.5 498.7C43 501.3 86 506.7 128.8 508.7C171.7 510.7 214.3 509.3 257.2 511.8C300 514.3 343 520.7 385.8 524.3C428.7 528 471.3 529 514.2 521.5C557 514 600 498 642.8 497C685.7 496 728.3 510 771.2 515.8C814 521.7 857 519.3 878.5 518.2L900 517L900 601L878.5 601C857 601 814 601 771.2 601C728.3 601 685.7 601 642.8 601C600 601 557 601 514.2 601C471.3 601 428.7 601 385.8 601C343 601 300 601 257.2 601C214.3 601 171.7 601 128.8 601C86 601 43 601 21.5 601L0 601Z" fill="#b098f8"></path><path d="M0 559L21.5 560.3C43 561.7 86 564.3 128.8 562.8C171.7 561.3 214.3 555.7 257.2 550.3C300 545 343 540 385.8 539.8C428.7 539.7 471.3 544.3 514.2 543.3C557 542.3 600 535.7 642.8 536.7C685.7 537.7 728.3 546.3 771.2 546.2C814 546 857 537 878.5 532.5L900 528L900 601L878.5 601C857 601 814 601 771.2 601C728.3 601 685.7 601 642.8 601C600 601 557 601 514.2 601C471.3 601 428.7 601 385.8 601C343 601 300 601 257.2 601C214.3 601 171.7 601 128.8 601C86 601 43 601 21.5 601L0 601Z" fill="#ffffff"></path></svg>